#N canvas 0 118 733 375 12;
#X obj 25 43 key;
#X obj 25 99 trigger bang bang;
#X msg 101 132 stop;
#X obj 185 39 keyup;
#X obj 115 173 delay 50;
#X msg 25 124 1;
#X msg 115 198 0;
#X obj 28 226 change;
#X obj 28 251 outlet;
#X obj 25 74 sel \$1;
#X obj 185 64 sel \$1;
#X obj 233 106 comment The trigger thing seems a little pointless \,
I think it's just forcing the delay to start before the keypress;
#X connect 0 0 9 0;
#X connect 1 0 5 0;
#X connect 1 1 2 0;
#X connect 2 0 4 0;
#X connect 3 0 10 0;
#X connect 4 0 6 0;
#X connect 5 0 7 0;
#X connect 6 0 7 0;
#X connect 7 0 8 0;
#X connect 9 0 1 0;
#X connect 10 0 4 0;
