#N canvas 960 96 960 984 12;
#X obj 138 1297 key;
#X obj 138 1328 sel 49;
#X obj 251 1297 key;
#X obj 368 1297 key;
#X obj 480 1297 key;
#X obj 251 1328 sel 50;
#X obj 368 1328 sel 51;
#X obj 480 1328 sel 52;
#X obj 129 851 vsl 15 128 0 100 0 0 empty empty empty 0 -9 0 10 -262144
-1 -1 0 1;
#X floatatom 129 993 5 0 0 0 - - -;
#X obj 241 851 vsl 15 128 0 100 0 0 empty empty empty 0 -9 0 10 -262144
-1 -1 0 1;
#X floatatom 241 993 5 0 0 0 - - -;
#X obj 357 851 vsl 15 128 0 100 0 0 empty empty empty 0 -9 0 10 -262144
-1 -1 0 1;
#X floatatom 357 993 5 0 0 0 - - -;
#X obj 475 851 vsl 15 128 0 100 0 0 empty empty empty 0 -9 0 10 -262144
-1 -1 0 1;
#X floatatom 475 993 5 0 0 0 - - -;
#X obj 138 1389 bng 15 250 50 0 empty BUTTON_A empty 17 7 0 10 -262144
-1 -1;
#X symbolatom 138 1359 10 0 0 0 - - BUTTON_A;
#X obj 251 1389 bng 15 250 50 0 empty BUTTON_B empty 17 7 0 10 -262144
-1 -1;
#X symbolatom 251 1359 10 0 0 0 - - BUTTON_B;
#X obj 368 1389 bng 15 250 50 0 empty BUTTON_C empty 17 7 0 10 -262144
-1 -1;
#X symbolatom 368 1359 10 0 0 0 - - BUTTON_C;
#X obj 480 1389 bng 15 250 50 0 empty BUTTON_D empty 17 7 0 10 -262144
-1 -1;
#X symbolatom 480 1359 10 0 0 0 - - BUTTON_D;
#X obj 127 1174 tgl 15 0 empty empty empty 17 7 0 10 -262144 -1 -1
1 1;
#X obj 127 1112 tabread leds;
#X floatatom 127 1082 5 0 9 0 - - -;
#X obj 277 473 tgl 15 0 empty empty empty 17 7 0 10 -262144 -1 -1 1
1;
#X obj 127 1143 > 0.5;
#X obj 239 1174 tgl 15 0 empty empty empty 17 7 0 10 -262144 -1 -1
1 1;
#X obj 239 1112 tabread leds;
#X floatatom 239 1082 5 0 9 0 - - -;
#X obj 239 1143 > 0.5;
#X obj 355 1174 tgl 15 0 empty empty empty 17 7 0 10 -262144 -1 -1
1 1;
#X obj 355 1112 tabread leds;
#X floatatom 355 1082 5 0 9 0 - - -;
#X obj 355 1143 > 0.5;
#X obj 473 1174 tgl 15 0 empty empty empty 17 7 0 10 -262144 -1 -1
1 1;
#X obj 473 1112 tabread leds;
#X floatatom 473 1082 5 0 9 0 - - -;
#X obj 473 1143 > 0.5;
#X obj 46 677 tgl 15 0 empty empty empty 17 7 0 10 -262144 -1 -1 1
1;
#X obj 46 615 tabread leds;
#X floatatom 46 585 5 0 9 0 - - -;
#X obj 46 646 > 0.5;
#X obj 404 677 tgl 15 0 empty empty empty 17 7 0 10 -262144 -1 -1 1
1;
#X obj 404 615 tabread leds;
#X floatatom 404 585 5 0 9 0 - - -;
#X obj 404 646 > 0.5;
#X obj 515 677 tgl 15 0 empty empty empty 17 7 0 10 -262144 -1 -1 1
1;
#X obj 515 615 tabread leds;
#X floatatom 515 585 5 0 9 0 - - -;
#X obj 515 646 > 0.5;
#X obj 630 677 tgl 15 0 empty empty empty 17 7 0 10 -262144 -1 -1 1
1;
#X obj 630 615 tabread leds;
#X floatatom 630 585 5 0 9 0 - - -;
#X obj 630 646 > 0.5;
#X obj 736 677 tgl 15 0 empty empty empty 17 7 0 10 -262144 -1 -1 1
1;
#X obj 736 615 tabread leds;
#X floatatom 736 585 5 0 9 0 - - -;
#X obj 736 646 > 0.5;
#X obj 148 615 tabread leds;
#X floatatom 148 585 5 0 9 0 - - -;
#X obj 148 679 vsl 15 128 0 100 0 0 empty empty empty 0 -9 0 10 -262144
-1 -1 9071 1;
#X obj 148 646 * 100;
#X text 44 826 POTS;
#X text 35 1053 LEDs;
#X text 44 1272 BUTTONS;
#X text 30 525 LEDs;
#X obj 212 172 comment Currently I am using a button press \, but it
would be better to track button down \, up \, and also run a debounce
algorithm to detect button press;
#X obj 212 65 comment TODO create a struct to use as output;
#X obj 898 1482 struct pedal-state array leds float array pots float
array buttons float;
#X obj 898 1528 set pedal-state leds pots buttons;
#X obj 900 1592 print pedal-state;
#X obj 277 499 metro 100;
#X obj 1218 96 array define leds2;
#X obj 1056 65 bng 15 250 50 0 empty empty empty 17 7 0 10 -262144
-1 -1;
#X floatatom 1059 172 5 0 0 0 - - -;
#X obj 1013 233 array set leds2;
#X obj 889 285 print arr;
#X floatatom 934 198 5 0 0 0 - - -;
#X floatatom 879 198 5 0 0 0 - - -;
#X obj 879 228 array get leds2;
#X floatatom 1218 127 5 0 0 0 - - -;
#X obj 1218 157 array size leds2;
#X msg 1013 143 0 0 0 0 0 0 0 0 0 1;
#X obj 1038 309 bng 15 250 50 0 empty empty empty 17 7 0 10 -262144
-1 -1;
#X floatatom 1041 425 5 0 0 0 - - -;
#X obj 995 473 array set leds2;
#X msg 995 399 1;
#X obj 879 172 bng 15 250 50 0 empty empty empty 17 7 0 10 -262144
-1 -1;
#X obj 212 96 comment TODO dont use `tabread` \, use `array get` instead
\, might be able to get rid of metronome when using array get if a
change is sufficient. Some scratch work is at the right. Definitely
possible but still probably need metro.;
#X obj 73 1214 tabwrite leds_out;
#X obj 220 1214 tabwrite leds_out;
#X obj 355 1214 tabwrite leds_out;
#X obj 501 1214 tabwrite leds_out;
#X obj 212 233 comment Should I be using inlet and outlet? could that
help me avoid using metro?;
#X obj 337 707 tabwrite leds_out;
#X obj 472 705 tabwrite leds_out;
#X obj 607 705 tabwrite leds_out;
#X obj 742 703 tabwrite leds_out;
#X obj 8 719 tabwrite leds_out;
#X obj 173 748 tabwrite leds_out;
#X connect 0 0 1 0;
#X connect 1 0 17 0;
#X connect 2 0 5 0;
#X connect 3 0 6 0;
#X connect 4 0 7 0;
#X connect 5 0 19 0;
#X connect 6 0 21 0;
#X connect 7 0 23 0;
#X connect 8 0 9 0;
#X connect 10 0 11 0;
#X connect 12 0 13 0;
#X connect 14 0 15 0;
#X connect 24 0 92 0;
#X connect 25 0 28 0;
#X connect 26 0 25 0;
#X connect 26 0 92 1;
#X connect 27 0 74 0;
#X connect 28 0 24 0;
#X connect 29 0 93 0;
#X connect 30 0 32 0;
#X connect 31 0 30 0;
#X connect 31 0 93 1;
#X connect 32 0 29 0;
#X connect 33 0 94 0;
#X connect 34 0 36 0;
#X connect 35 0 34 0;
#X connect 35 0 94 1;
#X connect 36 0 33 0;
#X connect 37 0 95 0;
#X connect 38 0 40 0;
#X connect 39 0 38 0;
#X connect 39 0 95 1;
#X connect 40 0 37 0;
#X connect 41 0 101 0;
#X connect 42 0 44 0;
#X connect 43 0 42 0;
#X connect 43 0 101 1;
#X connect 44 0 41 0;
#X connect 45 0 97 0;
#X connect 46 0 48 0;
#X connect 47 0 46 0;
#X connect 47 0 97 1;
#X connect 48 0 45 0;
#X connect 49 0 98 0;
#X connect 50 0 52 0;
#X connect 51 0 50 0;
#X connect 51 0 98 1;
#X connect 52 0 49 0;
#X connect 53 0 99 0;
#X connect 54 0 56 0;
#X connect 55 0 54 0;
#X connect 55 0 99 1;
#X connect 56 0 53 0;
#X connect 57 0 100 0;
#X connect 58 0 60 0;
#X connect 59 0 58 0;
#X connect 59 0 100 1;
#X connect 60 0 57 0;
#X connect 61 0 64 0;
#X connect 62 0 61 0;
#X connect 62 0 102 1;
#X connect 63 0 102 0;
#X connect 64 0 63 0;
#X connect 74 0 26 0;
#X connect 74 0 31 0;
#X connect 74 0 35 0;
#X connect 74 0 39 0;
#X connect 74 0 62 0;
#X connect 74 0 43 0;
#X connect 74 0 47 0;
#X connect 74 0 51 0;
#X connect 74 0 55 0;
#X connect 74 0 59 0;
#X connect 76 0 75 0;
#X connect 76 0 85 0;
#X connect 76 0 83 0;
#X connect 77 0 78 1;
#X connect 80 0 82 1;
#X connect 81 0 82 0;
#X connect 82 0 79 0;
#X connect 83 0 84 0;
#X connect 85 0 78 0;
#X connect 86 0 89 0;
#X connect 87 0 88 1;
#X connect 89 0 88 0;
#X connect 90 0 81 0;
