#N canvas 75 40 413 242 16;
#X obj 12 10 hsl 200 15 20 5000 0 0 empty nota empty -2 -8 0 10 -262144
-1 -1 0 1;
#X obj 12 112 osc~;
#X obj 12 194 dac~;
#X msg 172 175 \; pd dsp 0;
#X msg 75 175 \; pd dsp 1;
#X obj 12 154 *~;
#X text 73 149 Audio On/off;
#X obj 76 68 hsl 128 15 0 1 0 0 empty empty empty -2 -8 0 10 -262144
-1 -1 0 1;
#X floatatom 73 90 5 0 0 0 - - -, f 5;
#X floatatom 12 34 5 0 0 0 - - -, f 5;
#X msg 273 175 \; pd dsp \$1;
#X obj 273 121 tgl 15 0 empty empty empty 17 7 0 10 -262144 -1 -1 0
1;
#X floatatom 273 144 5 0 0 0 - - -, f 5;
#X msg 263 9 hello;
#X obj 263 42 print;
#X obj 333 9 hello;
#X text 73 31 frequency (Hz);
#X text 130 89 Amplitude [0-1];
#X connect 0 0 9 0;
#X connect 1 0 5 0;
#X connect 5 0 2 1;
#X connect 5 0 2 0;
#X connect 7 0 8 0;
#X connect 8 0 5 1;
#X connect 9 0 1 0;
#X connect 11 0 12 0;
#X connect 12 0 10 0;
#X connect 13 0 14 0;
